<svg width="32" height="32" viewBox="0 0 32 32" fill="none" xmlns="http://www.w3.org/2000/svg"><path d="M28.7 16.3c0-.9-.1-1.6-.2-2.3H16v4.4h7.1c-.3 1.8-1.3 3.3-2.8 4.3v3h4.5c2.6-2.4 3.9-6 3.9-9.4z" fill="#000"/><path d="M16 29.5c3.7 0 6.9-1.2 9.200-3.3l-4.500-3c-1.200.8-2.800 1.300-4.700 1.300-3.600 0-6.600-2.400-7.700-5.700H3.700v3.100c2.300 4.500 6.900 7.600 12.300 7.600z" fill="#000"/><path d="M8.300 18.800c-.3-.8-.4-1.700-.4-2.600s.2-1.800.4-2.600V10.500H3.700C2.800 12.300 2.300 14.100 2.300 16.200s.5 3.900 1.400 5.700l4.600-3.100z" fill="#000"/><path d="M16 7.800c2 0 3.900.7 5.300 2.100l4-4C22.900 3.700 19.700 2.500 16 2.500 10.600 2.500 6 5.600 3.700 10.100l4.600 3.100C9.400 10.200 12.400 7.800 16 7.800z" fill="#000"/></svg>
